# xmcd
#
# Track frame offsets: 
#        150
#        15598
#        32757
#        49499
#        63034
#        78452
#        90551
#        107088
#        119212
#        133676
#        144516
#
# Disc length: 2152 seconds
#
# Revision: 0
# Processed by: cddbd v1.5PL3 Copyright (c) Steve Scherf et al.
# Submitted via: ExactAudioCopy v0.95a4
#
DISCID=9608660b
DTITLE=Lance Miller - There Will Come A Day
DYEAR=2004
DGENRE=Country
TTITLE0=Twenty Foot Ladder
TTITLE1=Who's That Look In Your Eyes
TTITLE2=What I Already Have
TTITLE3=Rough Around The Edges
TTITLE4=Can You See Me Alright
TTITLE5=Go Ahead And Make My Night
TTITLE6=George Jones And Jesus
TTITLE7=This Side Of The Door
TTITLE8=Must Have Been From Texas
TTITLE9=Never Love Like That Again
TTITLE10=There Will Come A Day
EXTD=
EXTT0=
EXTT1=
EXTT2=
EXTT3=
EXTT4=
EXTT5=
EXTT6=
EXTT7=
EXTT8=
EXTT9=
EXTT10=
PLAYORDER=
